<mxfile host="app.diagrams.net" agent="Mozilla/5.0 (Windows NT 10.0; Win64; x64) AppleWebKit/537.36 (KHTML, like Gecko) Chrome/134.0.0.0 Safari/537.36" version="26.1.0">
  <diagram name="ページ1" id="u3KTnGcaad2kfNNgDazC">
    <mxGraphModel dx="1434" dy="1987" grid="1" gridSize="10" guides="1" tooltips="1" connect="1" arrows="1" fold="1" page="1" pageScale="1" pageWidth="827" pageHeight="1169" math="0" shadow="0">
      <root>
        <mxCell id="0" />
        <mxCell id="1" parent="0" />
        <mxCell id="vhDB4D9_b3Gb6dfGekna-1" value="" style="shape=image;verticalLabelPosition=bottom;labelBackgroundColor=default;verticalAlign=top;aspect=fixed;imageAspect=0;image=https://blogger.googleusercontent.com/img/b/R29vZ2xl/AVvXsEjLVz7O1ZW-iv4uq3k_uaeDsGe9uS0HiIJGPCHsHUiFAwaegw5uImc6azJnu3YDnDUc8cX7klP3fjMMrpaxAMdy38GMEuWeHD8LGiS65dKdffdsmI70Uq2Gqw24mrzuByDZy85qU-fpz0S2/s450/car_side.png;" parent="1" vertex="1">
          <mxGeometry x="360" y="20" width="222.73" height="147" as="geometry" />
        </mxCell>
        <mxCell id="vhDB4D9_b3Gb6dfGekna-2" value="" style="shape=image;verticalLabelPosition=bottom;labelBackgroundColor=default;verticalAlign=top;aspect=fixed;imageAspect=0;image=https://blogger.googleusercontent.com/img/b/R29vZ2xl/AVvXsEjLVz7O1ZW-iv4uq3k_uaeDsGe9uS0HiIJGPCHsHUiFAwaegw5uImc6azJnu3YDnDUc8cX7klP3fjMMrpaxAMdy38GMEuWeHD8LGiS65dKdffdsmI70Uq2Gqw24mrzuByDZy85qU-fpz0S2/s450/car_side.png;clipPath=inset(4.04% 0.67% 0% 75%);" parent="1" vertex="1">
          <mxGeometry x="290" y="20" width="56.478947368421046" height="147" as="geometry" />
        </mxCell>
        <mxCell id="vhDB4D9_b3Gb6dfGekna-4" value="" style="shape=image;verticalLabelPosition=bottom;labelBackgroundColor=default;verticalAlign=top;aspect=fixed;imageAspect=0;image=https://blogger.googleusercontent.com/img/b/R29vZ2xl/AVvXsEjLVz7O1ZW-iv4uq3k_uaeDsGe9uS0HiIJGPCHsHUiFAwaegw5uImc6azJnu3YDnDUc8cX7klP3fjMMrpaxAMdy38GMEuWeHD8LGiS65dKdffdsmI70Uq2Gqw24mrzuByDZy85qU-fpz0S2/s450/car_side.png;" parent="1" vertex="1">
          <mxGeometry x="360" y="240" width="222.73" height="147" as="geometry" />
        </mxCell>
        <mxCell id="vhDB4D9_b3Gb6dfGekna-5" value="" style="shape=image;verticalLabelPosition=bottom;labelBackgroundColor=default;verticalAlign=top;aspect=fixed;imageAspect=0;image=https://blogger.googleusercontent.com/img/b/R29vZ2xl/AVvXsEjLVz7O1ZW-iv4uq3k_uaeDsGe9uS0HiIJGPCHsHUiFAwaegw5uImc6azJnu3YDnDUc8cX7klP3fjMMrpaxAMdy38GMEuWeHD8LGiS65dKdffdsmI70Uq2Gqw24mrzuByDZy85qU-fpz0S2/s450/car_side.png;clipPath=inset(4.04% 0.67% 0% 75%);" parent="1" vertex="1">
          <mxGeometry x="290" y="240" width="56.478947368421046" height="147" as="geometry" />
        </mxCell>
        <mxCell id="vhDB4D9_b3Gb6dfGekna-6" value="" style="shape=image;verticalLabelPosition=bottom;labelBackgroundColor=default;verticalAlign=top;aspect=fixed;imageAspect=0;image=https://blogger.googleusercontent.com/img/b/R29vZ2xl/AVvXsEjLVz7O1ZW-iv4uq3k_uaeDsGe9uS0HiIJGPCHsHUiFAwaegw5uImc6azJnu3YDnDUc8cX7klP3fjMMrpaxAMdy38GMEuWeHD8LGiS65dKdffdsmI70Uq2Gqw24mrzuByDZy85qU-fpz0S2/s450/car_side.png;" parent="1" vertex="1">
          <mxGeometry x="390" y="370" width="222.73" height="147" as="geometry" />
        </mxCell>
        <mxCell id="vhDB4D9_b3Gb6dfGekna-7" value="" style="shape=image;verticalLabelPosition=bottom;labelBackgroundColor=default;verticalAlign=top;aspect=fixed;imageAspect=0;image=https://blogger.googleusercontent.com/img/b/R29vZ2xl/AVvXsEjLVz7O1ZW-iv4uq3k_uaeDsGe9uS0HiIJGPCHsHUiFAwaegw5uImc6azJnu3YDnDUc8cX7klP3fjMMrpaxAMdy38GMEuWeHD8LGiS65dKdffdsmI70Uq2Gqw24mrzuByDZy85qU-fpz0S2/s450/car_side.png;clipPath=inset(4.04% 0.67% 0% 75%);" parent="1" vertex="1">
          <mxGeometry x="320" y="370" width="56.478947368421046" height="147" as="geometry" />
        </mxCell>
        <mxCell id="vhDB4D9_b3Gb6dfGekna-8" value="" style="shape=image;verticalLabelPosition=bottom;labelBackgroundColor=default;verticalAlign=top;aspect=fixed;imageAspect=0;image=https://blogger.googleusercontent.com/img/b/R29vZ2xl/AVvXsEjLVz7O1ZW-iv4uq3k_uaeDsGe9uS0HiIJGPCHsHUiFAwaegw5uImc6azJnu3YDnDUc8cX7klP3fjMMrpaxAMdy38GMEuWeHD8LGiS65dKdffdsmI70Uq2Gqw24mrzuByDZy85qU-fpz0S2/s450/car_side.png;" parent="1" vertex="1">
          <mxGeometry x="430" y="511" width="222.73" height="147" as="geometry" />
        </mxCell>
        <mxCell id="vhDB4D9_b3Gb6dfGekna-9" value="" style="shape=image;verticalLabelPosition=bottom;labelBackgroundColor=default;verticalAlign=top;aspect=fixed;imageAspect=0;image=https://blogger.googleusercontent.com/img/b/R29vZ2xl/AVvXsEjLVz7O1ZW-iv4uq3k_uaeDsGe9uS0HiIJGPCHsHUiFAwaegw5uImc6azJnu3YDnDUc8cX7klP3fjMMrpaxAMdy38GMEuWeHD8LGiS65dKdffdsmI70Uq2Gqw24mrzuByDZy85qU-fpz0S2/s450/car_side.png;clipPath=inset(4.04% 0.67% 0% 75%);" parent="1" vertex="1">
          <mxGeometry x="360" y="511" width="56.478947368421046" height="147" as="geometry" />
        </mxCell>
        <mxCell id="vhDB4D9_b3Gb6dfGekna-10" value="" style="rounded=0;whiteSpace=wrap;html=1;fillColor=#fff2cc;opacity=50;strokeColor=#d6b656;" parent="1" vertex="1">
          <mxGeometry x="290" y="250" width="70" height="430" as="geometry" />
        </mxCell>
        <mxCell id="vhDB4D9_b3Gb6dfGekna-11" value="" style="rounded=0;whiteSpace=wrap;html=1;fillColor=#fff2cc;opacity=50;strokeColor=#d6b656;" parent="1" vertex="1">
          <mxGeometry x="595" y="250" width="70" height="430" as="geometry" />
        </mxCell>
        <mxCell id="vhDB4D9_b3Gb6dfGekna-12" value="" style="shape=curlyBracket;whiteSpace=wrap;html=1;rounded=1;flipH=1;labelPosition=right;verticalLabelPosition=middle;align=left;verticalAlign=middle;strokeWidth=3;" parent="1" vertex="1">
          <mxGeometry x="720" y="250" width="20" height="430" as="geometry" />
        </mxCell>
        <mxCell id="vhDB4D9_b3Gb6dfGekna-13" value="&lt;font style=&quot;font-size: 30px;&quot;&gt;受信信号&lt;/font&gt;" style="text;html=1;align=center;verticalAlign=middle;whiteSpace=wrap;rounded=0;" parent="1" vertex="1">
          <mxGeometry x="760" y="450" width="130" height="30" as="geometry" />
        </mxCell>
        <mxCell id="vhDB4D9_b3Gb6dfGekna-14" value="" style="shape=image;verticalLabelPosition=bottom;labelBackgroundColor=default;verticalAlign=top;aspect=fixed;imageAspect=0;image=https://blogger.googleusercontent.com/img/b/R29vZ2xl/AVvXsEjLVz7O1ZW-iv4uq3k_uaeDsGe9uS0HiIJGPCHsHUiFAwaegw5uImc6azJnu3YDnDUc8cX7klP3fjMMrpaxAMdy38GMEuWeHD8LGiS65dKdffdsmI70Uq2Gqw24mrzuByDZy85qU-fpz0S2/s450/car_side.png;" parent="1" vertex="1">
          <mxGeometry x="360" y="720" width="222.73" height="147" as="geometry" />
        </mxCell>
        <mxCell id="vhDB4D9_b3Gb6dfGekna-15" value="" style="shape=image;verticalLabelPosition=bottom;labelBackgroundColor=default;verticalAlign=top;aspect=fixed;imageAspect=0;image=https://blogger.googleusercontent.com/img/b/R29vZ2xl/AVvXsEjLVz7O1ZW-iv4uq3k_uaeDsGe9uS0HiIJGPCHsHUiFAwaegw5uImc6azJnu3YDnDUc8cX7klP3fjMMrpaxAMdy38GMEuWeHD8LGiS65dKdffdsmI70Uq2Gqw24mrzuByDZy85qU-fpz0S2/s450/car_side.png;" parent="1" vertex="1">
          <mxGeometry x="123.75" y="720" width="222.73" height="147" as="geometry" />
        </mxCell>
        <mxCell id="vhDB4D9_b3Gb6dfGekna-16" value="" style="shape=image;verticalLabelPosition=bottom;labelBackgroundColor=default;verticalAlign=top;aspect=fixed;imageAspect=0;image=https://blogger.googleusercontent.com/img/b/R29vZ2xl/AVvXsEjLVz7O1ZW-iv4uq3k_uaeDsGe9uS0HiIJGPCHsHUiFAwaegw5uImc6azJnu3YDnDUc8cX7klP3fjMMrpaxAMdy38GMEuWeHD8LGiS65dKdffdsmI70Uq2Gqw24mrzuByDZy85qU-fpz0S2/s450/car_side.png;" parent="1" vertex="1">
          <mxGeometry x="597.27" y="720" width="222.73" height="147" as="geometry" />
        </mxCell>
        <mxCell id="vhDB4D9_b3Gb6dfGekna-23" value="" style="shape=image;verticalLabelPosition=bottom;labelBackgroundColor=default;verticalAlign=top;aspect=fixed;imageAspect=0;image=https://blogger.googleusercontent.com/img/b/R29vZ2xl/AVvXsEjLVz7O1ZW-iv4uq3k_uaeDsGe9uS0HiIJGPCHsHUiFAwaegw5uImc6azJnu3YDnDUc8cX7klP3fjMMrpaxAMdy38GMEuWeHD8LGiS65dKdffdsmI70Uq2Gqw24mrzuByDZy85qU-fpz0S2/s450/car_side.png;clipPath=inset(11.62% 8.33% 5.56% 0%);" parent="1" vertex="1">
          <mxGeometry x="361.87" y="880" width="212.67" height="126.83" as="geometry" />
        </mxCell>
        <mxCell id="vhDB4D9_b3Gb6dfGekna-26" value="" style="shape=image;verticalLabelPosition=bottom;labelBackgroundColor=default;verticalAlign=top;aspect=fixed;imageAspect=0;image=https://blogger.googleusercontent.com/img/b/R29vZ2xl/AVvXsEjLVz7O1ZW-iv4uq3k_uaeDsGe9uS0HiIJGPCHsHUiFAwaegw5uImc6azJnu3YDnDUc8cX7klP3fjMMrpaxAMdy38GMEuWeHD8LGiS65dKdffdsmI70Uq2Gqw24mrzuByDZy85qU-fpz0S2/s450/car_side.png;clipPath=inset(4.04% 0.67% 0% 92%);" parent="1" vertex="1">
          <mxGeometry x="331.87" y="867" width="17.013315789473683" height="147" as="geometry" />
        </mxCell>
        <mxCell id="vhDB4D9_b3Gb6dfGekna-27" value="" style="shape=image;verticalLabelPosition=bottom;labelBackgroundColor=default;verticalAlign=top;aspect=fixed;imageAspect=0;image=https://blogger.googleusercontent.com/img/b/R29vZ2xl/AVvXsEjLVz7O1ZW-iv4uq3k_uaeDsGe9uS0HiIJGPCHsHUiFAwaegw5uImc6azJnu3YDnDUc8cX7klP3fjMMrpaxAMdy38GMEuWeHD8LGiS65dKdffdsmI70Uq2Gqw24mrzuByDZy85qU-fpz0S2/s450/car_side.png;clipPath=inset(11.62% 8.33% 5.56% 0%);" parent="1" vertex="1">
          <mxGeometry x="119.20000000000002" y="880" width="212.67" height="126.83" as="geometry" />
        </mxCell>
        <mxCell id="vhDB4D9_b3Gb6dfGekna-28" value="" style="shape=image;verticalLabelPosition=bottom;labelBackgroundColor=default;verticalAlign=top;aspect=fixed;imageAspect=0;image=https://blogger.googleusercontent.com/img/b/R29vZ2xl/AVvXsEjLVz7O1ZW-iv4uq3k_uaeDsGe9uS0HiIJGPCHsHUiFAwaegw5uImc6azJnu3YDnDUc8cX7klP3fjMMrpaxAMdy38GMEuWeHD8LGiS65dKdffdsmI70Uq2Gqw24mrzuByDZy85qU-fpz0S2/s450/car_side.png;clipPath=inset(4.04% 0.67% 0% 92%);" parent="1" vertex="1">
          <mxGeometry x="95.62" y="869.91" width="17.013315789473683" height="147" as="geometry" />
        </mxCell>
        <mxCell id="vhDB4D9_b3Gb6dfGekna-29" value="" style="shape=image;verticalLabelPosition=bottom;labelBackgroundColor=default;verticalAlign=top;aspect=fixed;imageAspect=0;image=https://blogger.googleusercontent.com/img/b/R29vZ2xl/AVvXsEjLVz7O1ZW-iv4uq3k_uaeDsGe9uS0HiIJGPCHsHUiFAwaegw5uImc6azJnu3YDnDUc8cX7klP3fjMMrpaxAMdy38GMEuWeHD8LGiS65dKdffdsmI70Uq2Gqw24mrzuByDZy85qU-fpz0S2/s450/car_side.png;clipPath=inset(4.04% 0.67% 0% 92%);" parent="1" vertex="1">
          <mxGeometry x="574.54" y="866.9999999999999" width="17.013315789473683" height="147" as="geometry" />
        </mxCell>
        <mxCell id="vhDB4D9_b3Gb6dfGekna-30" value="" style="shape=image;verticalLabelPosition=bottom;labelBackgroundColor=default;verticalAlign=top;aspect=fixed;imageAspect=0;image=https://blogger.googleusercontent.com/img/b/R29vZ2xl/AVvXsEjLVz7O1ZW-iv4uq3k_uaeDsGe9uS0HiIJGPCHsHUiFAwaegw5uImc6azJnu3YDnDUc8cX7klP3fjMMrpaxAMdy38GMEuWeHD8LGiS65dKdffdsmI70Uq2Gqw24mrzuByDZy85qU-fpz0S2/s450/car_side.png;clipPath=inset(11.62% 8.33% 5.56% 0%);" parent="1" vertex="1">
          <mxGeometry x="601.87" y="880" width="212.67" height="126.83" as="geometry" />
        </mxCell>
        <mxCell id="vhDB4D9_b3Gb6dfGekna-31" value="" style="shape=image;verticalLabelPosition=bottom;labelBackgroundColor=default;verticalAlign=top;aspect=fixed;imageAspect=0;image=https://blogger.googleusercontent.com/img/b/R29vZ2xl/AVvXsEjLVz7O1ZW-iv4uq3k_uaeDsGe9uS0HiIJGPCHsHUiFAwaegw5uImc6azJnu3YDnDUc8cX7klP3fjMMrpaxAMdy38GMEuWeHD8LGiS65dKdffdsmI70Uq2Gqw24mrzuByDZy85qU-fpz0S2/s450/car_side.png;clipPath=inset(10.61% 25.33% 5.56% 0.67%);" parent="1" vertex="1">
          <mxGeometry x="396.62" y="1014" width="170.57" height="127.55" as="geometry" />
        </mxCell>
        <mxCell id="vhDB4D9_b3Gb6dfGekna-33" value="" style="shape=image;verticalLabelPosition=bottom;labelBackgroundColor=default;verticalAlign=top;aspect=fixed;imageAspect=0;image=https://blogger.googleusercontent.com/img/b/R29vZ2xl/AVvXsEjLVz7O1ZW-iv4uq3k_uaeDsGe9uS0HiIJGPCHsHUiFAwaegw5uImc6azJnu3YDnDUc8cX7klP3fjMMrpaxAMdy38GMEuWeHD8LGiS65dKdffdsmI70Uq2Gqw24mrzuByDZy85qU-fpz0S2/s450/car_side.png;clipPath=inset(10.1% 1% 4.55% 74%);" parent="1" vertex="1">
          <mxGeometry x="567.1899999999999" y="1020.55" width="53.7" height="121" as="geometry" />
        </mxCell>
        <mxCell id="vhDB4D9_b3Gb6dfGekna-34" value="" style="shape=image;verticalLabelPosition=bottom;labelBackgroundColor=default;verticalAlign=top;aspect=fixed;imageAspect=0;image=https://blogger.googleusercontent.com/img/b/R29vZ2xl/AVvXsEjLVz7O1ZW-iv4uq3k_uaeDsGe9uS0HiIJGPCHsHUiFAwaegw5uImc6azJnu3YDnDUc8cX7klP3fjMMrpaxAMdy38GMEuWeHD8LGiS65dKdffdsmI70Uq2Gqw24mrzuByDZy85qU-fpz0S2/s450/car_side.png;clipPath=inset(10.1% 1% 4.55% 74%);" parent="1" vertex="1">
          <mxGeometry x="332.09999999999997" y="1020.55" width="53.7" height="121" as="geometry" />
        </mxCell>
        <mxCell id="vhDB4D9_b3Gb6dfGekna-35" value="" style="shape=image;verticalLabelPosition=bottom;labelBackgroundColor=default;verticalAlign=top;aspect=fixed;imageAspect=0;image=https://blogger.googleusercontent.com/img/b/R29vZ2xl/AVvXsEjLVz7O1ZW-iv4uq3k_uaeDsGe9uS0HiIJGPCHsHUiFAwaegw5uImc6azJnu3YDnDUc8cX7klP3fjMMrpaxAMdy38GMEuWeHD8LGiS65dKdffdsmI70Uq2Gqw24mrzuByDZy85qU-fpz0S2/s450/car_side.png;clipPath=inset(10.61% 25.33% 5.56% 0.67%);" parent="1" vertex="1">
          <mxGeometry x="159.62" y="1016" width="170.57" height="127.55" as="geometry" />
        </mxCell>
        <mxCell id="vhDB4D9_b3Gb6dfGekna-36" value="" style="shape=image;verticalLabelPosition=bottom;labelBackgroundColor=default;verticalAlign=top;aspect=fixed;imageAspect=0;image=https://blogger.googleusercontent.com/img/b/R29vZ2xl/AVvXsEjLVz7O1ZW-iv4uq3k_uaeDsGe9uS0HiIJGPCHsHUiFAwaegw5uImc6azJnu3YDnDUc8cX7klP3fjMMrpaxAMdy38GMEuWeHD8LGiS65dKdffdsmI70Uq2Gqw24mrzuByDZy85qU-fpz0S2/s450/car_side.png;clipPath=inset(10.1% 1% 4.55% 74%);" parent="1" vertex="1">
          <mxGeometry x="95.61999999999998" y="1022.55" width="53.7" height="121" as="geometry" />
        </mxCell>
        <mxCell id="vhDB4D9_b3Gb6dfGekna-37" value="" style="shape=image;verticalLabelPosition=bottom;labelBackgroundColor=default;verticalAlign=top;aspect=fixed;imageAspect=0;image=https://blogger.googleusercontent.com/img/b/R29vZ2xl/AVvXsEjLVz7O1ZW-iv4uq3k_uaeDsGe9uS0HiIJGPCHsHUiFAwaegw5uImc6azJnu3YDnDUc8cX7klP3fjMMrpaxAMdy38GMEuWeHD8LGiS65dKdffdsmI70Uq2Gqw24mrzuByDZy85qU-fpz0S2/s450/car_side.png;clipPath=inset(10.61% 25.33% 5.56% 0.67%);" parent="1" vertex="1">
          <mxGeometry x="638.35" y="1016.91" width="170.57" height="127.55" as="geometry" />
        </mxCell>
        <mxCell id="vhDB4D9_b3Gb6dfGekna-38" value="" style="verticalLabelPosition=bottom;shadow=0;dashed=0;align=center;html=1;verticalAlign=top;shape=mxgraph.electrical.radio.aerial_-_antenna_2;strokeWidth=4;" parent="1" vertex="1">
          <mxGeometry x="44.75" y="387" width="79" height="100" as="geometry" />
        </mxCell>
        <mxCell id="vhDB4D9_b3Gb6dfGekna-39" value="" style="endArrow=classic;html=1;rounded=0;strokeWidth=5;" parent="1" edge="1">
          <mxGeometry width="50" height="50" relative="1" as="geometry">
            <mxPoint x="130" y="370" as="sourcePoint" />
            <mxPoint x="280" y="320" as="targetPoint" />
          </mxGeometry>
        </mxCell>
        <mxCell id="vhDB4D9_b3Gb6dfGekna-40" value="&lt;font style=&quot;font-size: 30px;&quot;&gt;遅延波1&lt;/font&gt;" style="text;html=1;align=center;verticalAlign=middle;whiteSpace=wrap;rounded=0;" parent="1" vertex="1">
          <mxGeometry x="110" y="298.5" width="120" height="30" as="geometry" />
        </mxCell>
        <mxCell id="vhDB4D9_b3Gb6dfGekna-41" value="" style="endArrow=classic;html=1;rounded=0;strokeWidth=5;" parent="1" edge="1">
          <mxGeometry width="50" height="50" relative="1" as="geometry">
            <mxPoint x="123.75" y="437" as="sourcePoint" />
            <mxPoint x="280" y="440" as="targetPoint" />
            <Array as="points">
              <mxPoint x="200" y="500" />
            </Array>
          </mxGeometry>
        </mxCell>
        <mxCell id="vhDB4D9_b3Gb6dfGekna-42" value="&lt;font style=&quot;font-size: 30px;&quot;&gt;遅延波2&lt;/font&gt;" style="text;html=1;align=center;verticalAlign=middle;whiteSpace=wrap;rounded=0;" parent="1" vertex="1">
          <mxGeometry x="140" y="410" width="110" height="30" as="geometry" />
        </mxCell>
        <mxCell id="vhDB4D9_b3Gb6dfGekna-43" value="" style="endArrow=classic;html=1;rounded=0;strokeWidth=5;" parent="1" edge="1">
          <mxGeometry width="50" height="50" relative="1" as="geometry">
            <mxPoint x="112.63" y="511" as="sourcePoint" />
            <mxPoint x="280" y="580" as="targetPoint" />
            <Array as="points">
              <mxPoint x="150" y="680" />
              <mxPoint x="220" y="520" />
            </Array>
          </mxGeometry>
        </mxCell>
        <mxCell id="vhDB4D9_b3Gb6dfGekna-44" value="&lt;font style=&quot;font-size: 30px;&quot;&gt;遅延波3&lt;/font&gt;" style="text;html=1;align=center;verticalAlign=middle;whiteSpace=wrap;rounded=0;" parent="1" vertex="1">
          <mxGeometry x="180.35" y="620" width="109.65" height="30" as="geometry" />
        </mxCell>
        <mxCell id="vhDB4D9_b3Gb6dfGekna-45" value="" style="endArrow=none;html=1;rounded=0;entryX=0;entryY=0;entryDx=0;entryDy=0;strokeColor=#FFFFFF;strokeWidth=3;" parent="1" target="vhDB4D9_b3Gb6dfGekna-26" edge="1">
          <mxGeometry width="50" height="50" relative="1" as="geometry">
            <mxPoint x="330" y="1160" as="sourcePoint" />
            <mxPoint x="360" y="830" as="targetPoint" />
          </mxGeometry>
        </mxCell>
        <mxCell id="vhDB4D9_b3Gb6dfGekna-46" value="" style="endArrow=none;html=1;rounded=0;entryX=0;entryY=0;entryDx=0;entryDy=0;strokeColor=#FFFFFF;strokeWidth=3;" parent="1" edge="1">
          <mxGeometry width="50" height="50" relative="1" as="geometry">
            <mxPoint x="570" y="1166" as="sourcePoint" />
            <mxPoint x="572" y="873" as="targetPoint" />
          </mxGeometry>
        </mxCell>
        <mxCell id="vhDB4D9_b3Gb6dfGekna-47" value="" style="shape=curlyBracket;whiteSpace=wrap;html=1;rounded=1;flipH=1;labelPosition=right;verticalLabelPosition=middle;align=left;verticalAlign=middle;rotation=-90;strokeWidth=3;" parent="1" vertex="1">
          <mxGeometry x="467" y="112" width="20" height="231.5" as="geometry" />
        </mxCell>
        <mxCell id="vhDB4D9_b3Gb6dfGekna-48" value="&lt;font style=&quot;font-size: 30px;&quot;&gt;この部分を切り出す&lt;/font&gt;" style="text;html=1;align=center;verticalAlign=middle;whiteSpace=wrap;rounded=0;" parent="1" vertex="1">
          <mxGeometry x="340.59000000000003" y="180" width="282.63" height="30" as="geometry" />
        </mxCell>
        <mxCell id="vhDB4D9_b3Gb6dfGekna-50" value="" style="rounded=0;whiteSpace=wrap;html=1;fillColor=none;strokeColor=#FF0000;strokeWidth=3;" parent="1" vertex="1">
          <mxGeometry x="290" y="20" width="60" height="150" as="geometry" />
        </mxCell>
        <mxCell id="vhDB4D9_b3Gb6dfGekna-51" value="" style="rounded=0;whiteSpace=wrap;html=1;fillColor=none;strokeColor=#FF0000;strokeWidth=3;" parent="1" vertex="1">
          <mxGeometry x="525" y="14" width="60" height="150" as="geometry" />
        </mxCell>
        <mxCell id="vhDB4D9_b3Gb6dfGekna-52" value="" style="curved=1;endArrow=classic;html=1;rounded=0;strokeWidth=3;exitX=0.5;exitY=0;exitDx=0;exitDy=0;entryX=0.5;entryY=0;entryDx=0;entryDy=0;" parent="1" source="vhDB4D9_b3Gb6dfGekna-51" target="vhDB4D9_b3Gb6dfGekna-50" edge="1">
          <mxGeometry width="50" height="50" relative="1" as="geometry">
            <mxPoint x="430" y="-10" as="sourcePoint" />
            <mxPoint x="480" y="-60" as="targetPoint" />
            <Array as="points">
              <mxPoint x="500" y="-30" />
              <mxPoint x="390" y="-30" />
            </Array>
          </mxGeometry>
        </mxCell>
        <mxCell id="vhDB4D9_b3Gb6dfGekna-53" value="&lt;font style=&quot;font-size: 30px;&quot;&gt;コピー&lt;/font&gt;" style="text;html=1;align=center;verticalAlign=middle;whiteSpace=wrap;rounded=0;" parent="1" vertex="1">
          <mxGeometry x="390" y="-80" width="123.52" height="30" as="geometry" />
        </mxCell>
      </root>
    </mxGraphModel>
  </diagram>
</mxfile>
